<svg width="50" height="50" viewBox="0 0 50 50" fill="none" xmlns="http://www.w3.org/2000/svg">
<path d="M25.7403 2.02832H24.2608V6.63419H25.7403V2.02832Z" fill="#F2F4F8"/>
<path d="M31.391 3.37092L29.4575 7.55103L30.8002 8.17208L32.7337 3.99197L31.391 3.37092Z" fill="#F2F4F8"/>
<path d="M18.6093 3.37085L17.2665 3.99194L19.1999 8.17205L20.5427 7.55096L18.6093 3.37085Z" fill="#F2F4F8"/>
<path d="M15.1005 16.6449L14.4749 17.9856L15.5528 18.4887L16.1785 17.1479L15.1005 16.6449Z" fill="#F2F4F8"/>
<path d="M16.8414 18.9972L16.2157 20.3379L17.2937 20.841L17.9193 19.5002L16.8414 18.9972Z" fill="#F2F4F8"/>
<path d="M17.3963 24.5585L16.7706 25.8992L17.8486 26.4022L18.4743 25.0615L17.3963 24.5585Z" fill="#F2F4F8"/>
<path d="M11.2793 25.4046L10.6536 26.7454L11.7316 27.2484L12.3573 25.9077L11.2793 25.4046Z" fill="#F2F4F8"/>
<path d="M12.1567 30.4374L11.5311 31.7781L12.609 32.2811L13.2347 30.9404L12.1567 30.4374Z" fill="#F2F4F8"/>
<path d="M49.3743 43.9194L44.3956 43.8983L40.735 35.6405L41.7758 34.0962C43.3442 31.7688 43.6066 28.7165 42.4601 26.1305L35.1143 9.55884L25 14.5282L14.886 9.55884L7.53986 26.1305C6.39357 28.7166 6.65587 31.7688 8.22433 34.0962L9.26506 35.6404L5.6045 43.8982L0.625978 43.9193L0 45.3315L9.50168 50L10.1275 48.5879L6.94513 44.5571L10.6057 36.2992L12.3983 36.1471C15.1001 35.918 17.4907 34.1692 18.637 31.5832L25 17.2292L31.363 31.5831C32.5092 34.1691 34.8998 35.918 37.6017 36.147L39.3944 36.2991L43.055 44.557L39.8726 48.5879L40.4984 50L50 45.3315L49.3743 43.9194ZM6.98537 47.0447L3.76768 45.4638L5.73068 45.4553L6.98537 47.0447ZM17.2966 30.9244C16.3748 33.0039 14.4525 34.4103 12.2797 34.5945L10.4775 34.7474L9.43117 33.1949C8.16974 31.3234 7.9589 28.8689 8.88068 26.7892L14.2929 14.5801C14.3573 14.6555 14.4162 14.7355 14.4807 14.8231C14.736 15.17 15.0538 15.6018 15.8257 15.9811C16.5977 16.3604 17.1161 16.3393 17.5327 16.3227C17.8678 16.3093 18.1099 16.2995 18.5574 16.5194C19.0049 16.7393 19.1534 16.9411 19.3587 17.22C19.6141 17.5669 19.9319 17.9987 20.7039 18.3781C21.476 18.7573 21.9945 18.7366 22.4111 18.7198C22.5163 18.7156 22.6123 18.7126 22.7084 18.7161L17.2966 30.9244ZM23.3613 17.243C22.9516 17.1401 22.6304 17.1522 22.3544 17.1633C22.0194 17.1766 21.7772 17.1865 21.3295 16.9665C20.882 16.7466 20.7336 16.5449 20.5282 16.266C20.2728 15.9191 19.955 15.4873 19.1829 15.108C18.4109 14.7286 17.8923 14.7495 17.476 14.7663C17.1409 14.7797 16.8987 14.7896 16.4513 14.5697C16.0038 14.3497 15.8554 14.1481 15.6499 13.8691C15.4808 13.6393 15.2833 13.3722 14.9454 13.1079L15.6009 11.6291L24.0168 15.7641L23.3613 17.243ZM27.0328 17.4646C26.9681 17.5523 26.9091 17.6324 26.8449 17.7077L25.9834 15.7641L34.3994 11.6291L35.2605 13.5719C35.1644 13.5753 35.0684 13.5724 34.9633 13.5682C34.5466 13.5512 34.0282 13.5304 33.2563 13.9098C32.4843 14.2892 32.1666 14.7209 31.9112 15.0678C31.7058 15.3469 31.5574 15.5484 31.11 15.7683C30.6626 15.9882 30.4203 15.9783 30.0851 15.9649C29.6686 15.9479 29.1502 15.9272 28.378 16.3067C27.6057 16.6861 27.288 17.1176 27.0328 17.4646ZM39.5228 34.7474L37.7206 34.5945C35.5478 34.4102 33.6255 33.0039 32.7036 30.9244L27.4974 19.18C27.8354 18.9156 28.0329 18.6485 28.2021 18.4187C28.4076 18.1395 28.556 17.938 29.0036 17.7181C29.4511 17.4981 29.6931 17.5079 30.0285 17.5214C30.4453 17.5383 30.9634 17.5591 31.7356 17.1797C32.5075 16.8003 32.8253 16.3686 33.0806 16.0217C33.286 15.7426 33.4343 15.541 33.8819 15.3211C34.3294 15.1012 34.5715 15.1112 34.9067 15.1244C35.1826 15.1355 35.5039 15.1477 35.9134 15.0449L41.1196 26.7893C42.0414 28.8689 41.8305 31.3234 40.5691 33.1949L39.5228 34.7474ZM43.0147 47.0447L44.2695 45.4554L46.2324 45.4639L43.0147 47.0447Z" fill="#F2F4F8"/>
<path d="M36.528 20.7132L35.4501 21.2163L36.0758 22.557L37.1537 22.054L36.528 20.7132Z" fill="#F2F4F8"/>
<path d="M33.1616 17.4813L32.0836 17.9844L32.7093 19.3251L33.7873 18.822L33.1616 17.4813Z" fill="#F2F4F8"/>
<path d="M32.067 21.7269L30.989 22.23L31.6147 23.5707L32.6927 23.0676L32.067 21.7269Z" fill="#F2F4F8"/>
<path d="M35.4511 26.8329L34.3731 27.3359L34.9988 28.6767L36.0768 28.1736L35.4511 26.8329Z" fill="#F2F4F8"/>
<path d="M38.9229 27.6273L37.8449 28.1304L38.4706 29.4711L39.5486 28.968L38.9229 27.6273Z" fill="#F2F4F8"/>
</svg>
