<svg width="50" height="50" viewBox="0 0 50 50" fill="none" xmlns="http://www.w3.org/2000/svg">
<path d="M42.6844 14.0359L31.8594 22.1031C32.7469 24.5406 32.5656 27.1 31.5422 29.2687C30.5391 31.4468 28.6953 33.2312 26.2562 34.1187L11.575 39.4625C10.7672 39.7562 9.86562 39.3359 9.57343 38.5281C8.09843 34.475 8.40625 30.2078 10.0953 26.5812C11.7875 22.9562 14.8594 19.975 18.9125 18.5L25.6516 16.0484C26.975 15.5671 28.4422 15.6296 29.725 16.2281L41.5656 11.9187" stroke="#EEEEEE" stroke-width="2" stroke-miterlimit="10" stroke-linecap="round" stroke-linejoin="round"/>
<path d="M41.7375 12.6889C42.325 14.303 44.1281 15.1436 45.7422 14.5561C47.3563 13.9686 48.1969 12.1655 47.6094 10.5514C47.0219 8.93736 45.2188 8.09673 43.6047 8.68423C41.9906 9.27173 41.15 11.0749 41.7375 12.6889Z" stroke="#EEEEEE" stroke-width="2" stroke-miterlimit="10" stroke-linecap="round" stroke-linejoin="round"/>
<path d="M2.62659 19.4421L18.7766 13.564" stroke="#EEEEEE" stroke-width="2" stroke-miterlimit="10" stroke-linecap="round" stroke-linejoin="round"/>
<path d="M21.7125 12.4952L40.8 5.54834" stroke="#EEEEEE" stroke-width="2" stroke-miterlimit="10" stroke-linecap="round" stroke-linejoin="round"/>
<path d="M22.2469 13.9639L21.2047 11.0999" stroke="#EEEEEE" stroke-width="2" stroke-miterlimit="10" stroke-linecap="round" stroke-linejoin="round"/>
<path d="M21.8469 17.4343L24.7844 16.3639L24.25 14.8968C23.9563 14.0843 23.0594 13.6686 22.2485 13.9624C21.436 14.2577 21.0188 15.1546 21.3141 15.9655L21.8469 17.4343Z" stroke="#EEEEEE" stroke-width="2" stroke-miterlimit="10" stroke-linecap="round" stroke-linejoin="round"/>
<path d="M18.1828 18.7937L19.5344 24.0968C20.5157 27.9781 18.4 31.9921 14.6406 33.3609L8.8844 35.4562" stroke="#EEEEEE" stroke-width="2" stroke-miterlimit="10" stroke-linecap="round" stroke-linejoin="round"/>
<path d="M44.6735 11.6218L44.5266 11.675" stroke="#EEEEEE" stroke-width="2" stroke-miterlimit="10" stroke-linecap="round" stroke-linejoin="round"/>
<path d="M35.2016 35.8516L11.5766 44.5078C10.1672 45.025 8.6 44.3469 8.00781 42.9688" stroke="#EEEEEE" stroke-width="2" stroke-miterlimit="10" stroke-linecap="round" stroke-linejoin="round"/>
<path d="M32.2656 36.9218L31.7313 35.4547C31.1407 33.8328 29.3469 32.9968 27.7266 33.5875L22.7703 35.3906L15.9797 37.8609C14.3578 38.4515 13.5219 40.2453 14.1125 41.8656L14.6469 43.3343" stroke="#EEEEEE" stroke-width="2" stroke-miterlimit="10" stroke-linecap="round" stroke-linejoin="round"/>
<path d="M31.861 22.1029L31.0594 19.9014" stroke="#EEEEEE" stroke-width="2" stroke-miterlimit="10" stroke-linecap="round" stroke-linejoin="round"/>
<path d="M24.1219 28.2467L27.0563 27.178" stroke="#EEEEEE" stroke-width="2" stroke-miterlimit="10" stroke-linecap="round" stroke-linejoin="round"/>
<path d="M36.7985 32.0312H44.611" stroke="#EEEEEE" stroke-width="2" stroke-miterlimit="10" stroke-linecap="round" stroke-linejoin="round"/>
<path d="M35.236 41.4062H47.736" stroke="#EEEEEE" stroke-width="2" stroke-miterlimit="10" stroke-linecap="round" stroke-linejoin="round"/>
<path d="M38.361 44.5312H24.2985" stroke="#EEEEEE" stroke-width="2" stroke-miterlimit="10" stroke-linecap="round" stroke-linejoin="round"/>
<path d="M43.0485 44.5312H41.486" stroke="#EEEEEE" stroke-width="2" stroke-miterlimit="10" stroke-linecap="round" stroke-linejoin="round"/>
</svg>
