<svg width="57" height="34" viewBox="0 0 57 34" fill="none" xmlns="http://www.w3.org/2000/svg">
<g id="Ingles">
<g id="Capa_1">
<path id="Vector" d="M56.7087 0H0V34H56.7087V0Z" fill="white"/>
<path id="Vector_2" d="M56.7087 26.1152H0V28.7646H56.7087V26.1152Z" fill="#B40000"/>
<path id="Vector_3" d="M56.7087 20.8794H0V23.5287H56.7087V20.8794Z" fill="#B40000"/>
<path id="Vector_4" d="M22.7087 18.2933H56.7087V15.707H22.7087V18.2933Z" fill="#B40000"/>
<path id="Vector_5" d="M22.7087 0H0V2.58627V5.23562V7.82189V10.4712V13.0575V15.7069V18.2931H22.7087" fill="#00007D"/>
<path id="Vector_6" d="M56.7087 0H22.7087V2.64935H56.7087V0Z" fill="#B40000"/>
<path id="Vector_7" d="M56.7087 5.23584H22.7087V7.82211H56.7087V5.23584Z" fill="#B40000"/>
<path id="Vector_8" d="M56.7087 10.4712H22.7087V13.1205H56.7087V10.4712Z" fill="#B40000"/>
<path id="Vector_9" d="M56.7087 31.3506H0V33.9999H56.7087V31.3506Z" fill="#B40000"/>
</g>
</g>
</svg>
