<svg width="420" height="338" viewBox="0 0 420 338" fill="none" xmlns="http://www.w3.org/2000/svg">
<g clip-path="url(#clip0_80_18)">
<g filter="url(#filter0_d_80_18)">
<path d="M279.706 51.137L281.591 53.337L283.987 57.759L285.689 62.464L285.472 65.482L284.095 63.773L281.63 57.662L283.217 65.284L283.057 68.364L280.348 70.694L281.783 70.43L282.752 69.762L283.664 68.931L284.889 68.15L284.462 68.635L284.363 69.218L284.523 69.909L284.889 70.693L285.248 69.571L285.645 67.381L286.172 66.193L290.716 78.81L296.417 92.31L303.136 103.608L321.028 127.118L322.467 128.223L328.442 135.571L332.132 139.233L334.364 137.978L335.219 138.524L337.692 138.958L338.203 139.686L338.272 141.464L338.57 142.948L339.257 144.265L340.478 145.536L344.843 152.043L346.239 153.042L351.642 160.369L355.717 164.233L358.113 163.497L358.655 164.991L359.17 168.823L360.036 170.58L361.482 171.695L367.774 173.893L370.01 174.125L372.208 174.048L374.276 174.218L376.1 175.186L378.447 178.739L380.027 179.706L380.118 179.764L381.127 183.33L380.398 183.374L378.966 182.612L377.539 182.381L376.873 183.408L376.481 187.056L375.875 188.272L374.63 188.466L372.888 188.164L371.248 187.658L370.325 187.221L369.329 186.111L368.13 183.819L367.171 182.731L366.417 183.08L365.513 182.741L361.6 179.417L356.168 177.242L354.438 177.439L352.696 178.921L351.632 180.432L351.458 181.314L352.594 183.336L353.243 185.945L353.645 186.493L354.258 186.68L354.689 186.945L354.539 187.719L353.141 188.522L348.14 189.21L346.388 189.831L345.601 191.16L345.359 192.985L345.461 200.859L345.606 212.251L345.806 227.808L345.819 228.859L348.625 227.679L349.49 227.674L350.142 228.16L350.479 228.879L350.743 229.627L351.16 230.211L351.71 230.535L353.818 231.48L358.124 234.672L362.388 236.132L363.66 236.978L366.078 241.074L366.451 241.967L366.377 242.089L365.092 244.201L362.286 245.913L352.614 249.888L351.521 250.675L350.608 251.894L351.054 252.325L351.798 252.786L351.783 254.078L350.908 255.095L348.117 256.841L347.359 257.66L347.248 259.079L347.711 260.42L348.544 261.668L351.488 264.975L353.056 267.191L354.221 269.642L354.965 272.524L355.517 279.135L355.241 282.467L354.361 285.26L352.287 287.825L349.84 289.035L347.189 289.851L344.495 291.24L340.344 295.215L336.075 297.625L335.249 298.298L335.142 299.486L336.002 300.409L338.628 301.959L339.125 302.493L340.031 303.832L340.554 304.251L341.148 304.285L342.28 303.832L343.135 303.952L344.775 304.819L345.417 305.791L345.846 308.797L350.786 319.658L350.321 323.887L349.734 326.046L348.457 325.041L348.602 323.596L349.312 322.001L349.736 320.548L349.477 319.388L343.089 308.383L340.83 305.996L329.177 297.493L325.987 294.35L328.742 290.971L329.25 290.701L329.777 289.729L330.796 288.468L331.445 287.014L330.85 285.494L327.786 281.655L327.271 280.579L327.221 279.178L327.889 278.688L329.057 278.341L330.53 277.403L329.423 277.048L326.687 277.195L325.348 276.697L324.65 275.914L322.784 272.221L323.093 271.731L323.242 271.399L323.425 270.866H324.066L324.97 272.406L325.245 273.159L325.348 274.429L325.76 274.641L328.549 273.518V272.812L327.267 272.268L325.909 271.257L324.753 270.045L324.066 268.922H323.425L322.715 270.087L321.009 270.157L319.059 269.929L317.605 270.218L316.918 268.944L315.819 267.609L314.518 266.93L313.186 267.632L310.214 265.876L309.344 264.452L309.924 262.449L309.283 262.403L308.646 262.449L309.031 260.897L307.703 260.152L305.726 259.739L304.158 259.214L303.609 260.326L303.113 260.245L302.495 259.793L301.545 259.797L301.099 260.307L300.984 260.975L300.595 261.554L299.328 261.801L296.226 261.334L294.963 261.797L294.497 263.685L295.207 263.141L295.196 263.098H295.78L299.073 268.073L299.508 269.582L301.431 272.623L302.179 273.518L303.415 274.155L306.918 275.22L308.326 275.401L309.616 276.177L310.845 277.686L312.032 278.701L313.188 277.995L313.238 280.333L313.051 281.294L312.482 281.935V282.583L313.898 284.527L314.47 287.845L314.222 291.293L313.188 293.646L311.082 293.723L307.652 292.616L304.42 291.05L302.886 289.766H303.462L303.882 290.102L304.225 290.256L305.499 290.406L303.69 289.592L302.957 289.11L302.179 288.412V289.766L296.772 287.394L294.849 287.116L289.106 287.814L287.515 287.822L286.16 287.178L284.912 285.89L282.626 282.908L274.472 275.292L273.949 274.431L273.545 274.327L271.626 273.54L271.042 273.17L270.752 270.222L273.606 265.807L274.27 265.043L275.743 264.163L276.75 263.773L277.212 264.047L277.51 264.614L278.159 263.958L280.441 260.457L281.055 259.801L279.88 258.295L281.296 256.6L283.872 255.21L286.177 254.619V254.032L284.147 253.789L283.128 253.882L282.43 254.446L281.346 255.62L280.247 256.137L279.881 255.226L280.327 253.616L281.639 252.029L283.963 250.894L285.031 250.153L285.477 249.083L284.893 248.121L283.676 247.453L282.569 246.557L282.336 244.9L284.148 245.831L285.026 246.105L286.174 246.14L285.613 245.445L284.903 244.916L283.552 244.194L282.98 243.719L282.656 243.279L282.156 242.978L281.053 242.901L282.19 242.213L282.03 241.715L281.377 241.336L281.053 241.012L281.477 239.969L281.958 239.193L282.614 238.505L283.553 237.717L281.069 231.169L280.611 230.338L279.073 228.642L278.432 229.283L276.326 226.536L274.407 223.332L271.942 220.82L268.191 220.147L268.408 217.697L266.344 215.602L263.509 214.152L261.41 213.603L254.042 206.528L246.819 203.156L245.663 202.251L236.643 198.685H236.059L235.452 199.13L234.925 199.126L234.486 198.72L234.135 197.977L232.849 198.534L232.082 197.919L231.212 197.026L229.602 196.736L230.609 194.984L229.27 192.512L226.82 190.346L224.473 189.541V190.183L225.297 190.345L225.854 190.577L227.094 191.482L224.656 191.053L220.787 188.767L218.334 188.241L215.957 188.055L203.419 184.542L201.019 184.345L199.897 184.542L198.695 184.925L197.447 185.18L196.188 184.99L195.089 184.061L194.719 182.939L194.276 182.033L192.99 181.743L193.23 182.126L193.367 182.412L193.565 183.101L192.016 181.847L188.54 179.591L187.865 178.175L187.533 176.867L186.709 176.236L185.667 175.822L184.66 175.191L184.339 174.227L184.473 173.232L184.214 172.589L182.745 172.651L183.115 171.571L183.012 170.534L182.772 169.559L182.745 168.7L183.298 167.632L184.912 166.018L185.549 164.407L186.205 163.606L186.865 162.568L187.166 161.197L186.853 160.059L186.12 159.072L184.659 157.597L180.866 151.928L179.805 151.095L178.283 150.44L178.485 148.999L179.805 146.814L177.5 144.908L177.076 143.982L177.561 142.587L174.871 141.758L166.56 142.587V141.878L167.712 141.425L169.189 141.262L172.44 141.285V140.634L169.452 140.491L166.785 140.014L164.374 139.189L162.138 137.98L159.311 135.62L158.88 135.109L158.273 134.969L157.083 134.159L156.243 133.26L156.693 132.834L155.125 132.016L151.279 128.392L149.23 127.369L148.265 126.474L147.674 126.272L147.205 126.485L146.801 126.842L146.267 126.923L145.439 126.272L145.992 125.26L146.175 124.613L145.751 124.318L145.385 124.144L144.156 123.02L142.466 123.574L136.121 123.671L134.442 123.237L132.942 122.183L130.592 119.713V119.12L131.13 117.379L129.493 115.374L125.467 112.551L126.039 114.478L128.748 116.467L129.37 118.793L129.618 123.213L130.183 125.806L131.29 127.574L130.069 128.365L130.241 129.683L131.348 130.927L134.213 131.939L135.232 133.051L136.468 135.434H137.052L137.808 135.12L138.136 135.376L138.277 136.027L137.46 136.089L136.617 135.98L135.816 135.74L135.129 135.434V136.027L136.888 137.593L139.032 139.503L144.721 141.828L145.438 142.235L146.106 141.972L147.602 142.588L151.223 144.68L152.894 145.222L154.687 145.269L156.374 144.537L157.481 145.424L159.843 146.919L160.919 147.849V148.442L159.049 148.895L159.133 150.266L160.266 151.862L161.499 153.047L160.736 153.31L160.015 153.821L158.882 154.994L160.267 155.621L161.904 155.807L165.281 155.702V156.294L163.961 157.189L162.282 157.898L160.836 158.874L160.218 160.547L159.867 160.934L157.658 162.2L157.242 162.897L156.761 164.651L156.376 165.391L153.434 163.928L151.873 163.8L151.198 165.066L151.614 165.844L153.056 167.683L152.827 168.051L149.79 169.541L149.279 169.669L148.936 170.157L146.715 171.295L146.257 172.05L144.208 178.594L143.349 180.258L142.227 181.744H141.536L138.915 176.307L131.101 165.674L130.593 164.443L130.208 163.998L129.338 163.452L126.988 162.476L126.793 161.721L126.827 160.854L126.751 160.192L124.519 157.718L121.413 155.948L111.328 152.339L110.427 152.533L109.084 153.474L108.477 153.699L107.573 153.486L106.302 152.556L105.272 152.339L104.669 152.289L104.459 152.138L104.337 151.851L103.994 151.421L103.338 151.115L102.792 151.258L102.433 151.56L102.364 151.746L97.064 150.034L94.526 149.639L93.927 149.267L93.45 148.814L92.702 148.442L91.649 148.488L90.955 148.91L90.337 148.953L89.501 147.849L90.173 146.075L89.181 143.677L79.577 131.832L79.005 130.786L78.25 128.22L77.094 126.425L73.439 117.435L73.107 114.736L72.706 113.096L72.157 111.902L73.451 110.63L73.989 109.715L73.787 108.943L71.791 106.383L70.536 105.615L71.23 104.676L72.855 103.38L73.954 101.762L74.721 100.183L76.324 100.823L77.194 99.81L77.873 98.332L79.865 96.819L79.094 95.108L77.678 93.323L76.701 92.314L77.289 91.907L77.541 91.767L77.976 91.662V91.01H76.702V90.358L77.77 90.156L78.457 89.492L79.258 87.691H79.899L81.204 88.758L83.043 87.993L84.92 86.933L86.355 87.104H86.939L86.813 85.85L87.134 85.245L87.668 84.915L88.164 84.496L89.023 83.005L89.363 83.087L90.523 83.196L93.347 80.234L93.133 79.442L92.637 78.836L91.424 77.986L87.582 81.892L87.49 81.578L87.502 81.298L87.399 81.143L86.941 81.182V80.588L88.028 79.396L88.692 78.895L89.505 78.639L88.864 77.987L88.78 78.072L88.654 78.254L88.459 78.456L88.165 78.638L88.402 77.846L88.448 77.57L89.505 77.275V76.681H88.864V75.97L90.428 74.716L90.737 71.474L90.203 65.186L88.795 63.516L85.693 62.129L82.587 61.62L81.179 62.583H80.618L78.031 60.431L77.279 59.615L77.725 59.763L78.282 59.507L78.515 58.975L77.977 58.311L77.29 58.156L75.478 58.335L74.723 58.312L71.964 57.271L69.793 55.993L67.366 54.917L63.836 54.466V53.755L65.958 53.219L69.926 51.408L72.158 51.144L71.803 50.557L71.521 50.196L71.086 49.978L70.239 49.838V49.193L74.875 48.913L76.054 49.193L76.546 49.928L76.428 50.783L76.199 51.494L76.382 51.797L76.771 51.98L77.977 53.099H78.561L79.259 52.392V51.79L78.191 50.725L79.214 50.037L81.213 49.738L83.102 49.831L83.743 50.134L84.583 50.969L85.346 51.136L85.957 50.911L86.216 50.363L86.113 49.714L85.659 49.185V48.474L87.052 47.953L87.445 46.904L87.121 45.664L86.358 44.556L85.679 44.058L84.099 43.401L83.424 42.927L82.634 42.087V41.861L83.107 41.76L83.744 41.293L85.179 39.96L86.011 40.419L86.984 41.325L88.865 41.294L89.994 40.252L89.742 38.864L88.727 37.527L87.582 36.672L86.784 36.333L89.049 32.63L90.762 28.884L93.403 25.31L96.524 24L99.209 25.391L101.855 27.787L104.886 29.498L114.377 33.032L127.042 37.738L130.407 38.99L143.876 44L159.015 49.612L161.171 49.854L163.369 49.059L173.046 42.639L179.985 38.037L182.922 37.333L184.584 38.066L188.153 40.643L189.788 40.88L191.809 40.766L193.973 41.46L198.649 43.531L199.155 43.674L199.64 43.869L200.096 44.116L200.489 44.407L202.621 47.073L203.423 47.752L204.264 48.231L205.265 48.626L206.292 48.73L207.181 48.355L212.226 45.053L213.023 44.574L213.912 45.026L214.13 45.744L214.111 46.709L214.305 47.891L214.717 48.582L215.965 50.157L216.227 50.828L217.218 51.758L221.575 53.438L222.571 54.117L223.409 55.052L225.197 55.97L226.818 57.339L227.167 59.628L225.866 60.311L225.478 60.577L225.061 61.315L225.235 61.853L225.618 62.26L225.831 62.591L227.895 64.256L228.389 64.905L229.438 64.138L230.899 64.168L231.565 64.266L232.382 64.385L233.509 64.195L235.251 65.907L236.329 66.319L237.407 65.498H238.052L239.188 66.615L241.514 65.113L243.116 65.498L244.228 64.381L245.49 64.169L246.525 64.874L246.954 66.502L252.609 70.983L253.241 71.284L254.113 71.42L255.031 71.24L256.337 70.328L256.965 70.116L259.529 70.629L259.878 70.417L261.797 68.163L268.022 65.79L268.505 65.674L274.664 64.196L277.957 62.492L278.228 59.899L277.368 56.502L277.281 52.401L277.325 51.94L277.213 51.454L277.894 50.968L278.446 51.086L279.04 51.071L279.706 51.137ZM140.266 130.035L141.182 130.256L141.701 130.702L142.464 130.907L143.456 130.88V131.469L142.315 131.884L140.877 132.233L139.282 132.372L137.691 132.182L136.066 131.508L135.207 130.632L133.91 128.221L135.677 127.624L136.467 127.57L139.459 128.082L142.225 128.931V129.582H138.974L139.863 130.059L140.266 130.035ZM256.05 262.369L257.284 261.752L258.63 261.696L258.518 262.817L257.789 263.097L256.611 262.873L256.05 262.369Z" fill="#134A4B"/>
<path d="M-46 564L-44.253 563.912L-42.329 563.474M279.706 51.137L281.591 53.337L283.987 57.759L285.689 62.464L285.472 65.482L284.095 63.773L281.63 57.662L283.217 65.284L283.057 68.364L280.348 70.694L281.783 70.43L282.752 69.762L283.664 68.931L284.889 68.15L284.462 68.635L284.363 69.218L284.523 69.909L284.889 70.693L285.248 69.571L285.645 67.381L286.172 66.193L290.716 78.81L296.417 92.31L303.136 103.608L321.028 127.118L322.467 128.223L328.442 135.571L332.132 139.233L334.364 137.978L335.219 138.524L337.692 138.958L338.203 139.686L338.272 141.464L338.57 142.948L339.257 144.265L340.478 145.536L344.843 152.043L346.239 153.042L351.642 160.369L355.717 164.233L358.113 163.497L358.655 164.991L359.17 168.823L360.036 170.58L361.482 171.695L367.774 173.893L370.01 174.125L372.208 174.048L374.276 174.218L376.1 175.186L378.447 178.739L380.027 179.706L380.118 179.764L381.127 183.33L380.398 183.374L378.966 182.612L377.539 182.381L376.873 183.408L376.481 187.056L375.875 188.272L374.63 188.466L372.888 188.164L371.248 187.658L370.325 187.221L369.329 186.111L368.13 183.819L367.171 182.731L366.417 183.08L365.513 182.741L361.6 179.417L356.168 177.242L354.438 177.439L352.696 178.921L351.632 180.432L351.458 181.314L352.594 183.336L353.243 185.945L353.645 186.493L354.258 186.68L354.689 186.945L354.539 187.719L353.141 188.522L348.14 189.21L346.388 189.831L345.601 191.16L345.359 192.985L345.461 200.859L345.606 212.251L345.806 227.808L345.819 228.859L348.625 227.679L349.49 227.674L350.142 228.16L350.479 228.879L350.743 229.627L351.16 230.211L351.71 230.535L353.818 231.48L358.124 234.672L362.388 236.132L363.66 236.978L366.078 241.074L366.451 241.967L366.377 242.089L365.092 244.201L362.286 245.913L352.614 249.888L351.521 250.675L350.608 251.894L351.054 252.325L351.798 252.786L351.783 254.078L350.908 255.095L348.117 256.841L347.359 257.66L347.248 259.079L347.711 260.42L348.544 261.668L351.488 264.975L353.056 267.191L354.221 269.642L354.965 272.524L355.517 279.135L355.241 282.467L354.361 285.26L352.287 287.825L349.84 289.035L347.189 289.851L344.495 291.24L340.344 295.215L336.075 297.625L335.249 298.298L335.142 299.486L336.002 300.409L338.628 301.959L339.125 302.493L340.031 303.832L340.554 304.251L341.148 304.285L342.28 303.832L343.135 303.952L344.775 304.819L345.417 305.791L345.846 308.797L350.786 319.658L350.321 323.887L349.734 326.046L348.457 325.041L348.602 323.596L349.312 322.001L349.736 320.548L349.477 319.388L343.089 308.383L340.83 305.996L329.177 297.493L325.987 294.35L328.742 290.971L329.25 290.701L329.777 289.729L330.796 288.468L331.445 287.014L330.85 285.494L327.786 281.655L327.271 280.579L327.221 279.178L327.889 278.688L329.057 278.341L330.53 277.403L329.423 277.048L326.687 277.195L325.348 276.697L324.65 275.914L322.784 272.221L323.093 271.731L323.242 271.399L323.425 270.866H324.066L324.97 272.406L325.245 273.159L325.348 274.429L325.76 274.641L328.549 273.518V272.812L327.267 272.268L325.909 271.257L324.753 270.045L324.066 268.922H323.425L322.715 270.087L321.009 270.157L319.059 269.929L317.605 270.218L316.918 268.944L315.819 267.609L314.518 266.93L313.186 267.632L310.214 265.876L309.344 264.452L309.924 262.449L309.283 262.403L308.646 262.449L309.031 260.897L307.703 260.152L305.726 259.739L304.158 259.214L303.609 260.326L303.113 260.245L302.495 259.793L301.545 259.797L301.099 260.307L300.984 260.975L300.595 261.554L299.328 261.801L296.226 261.334L294.963 261.797L294.497 263.685L295.207 263.141L295.196 263.098H295.78L299.073 268.073L299.508 269.582L301.431 272.623L302.179 273.518L303.415 274.155L306.918 275.22L308.326 275.401L309.616 276.177L310.845 277.686L312.032 278.701L313.188 277.995L313.238 280.333L313.051 281.294L312.482 281.935V282.583L313.898 284.527L314.47 287.845L314.222 291.293L313.188 293.646L311.082 293.723L307.652 292.616L304.42 291.05L302.886 289.766H303.462L303.882 290.102L304.225 290.256L305.499 290.406L303.69 289.592L302.957 289.11L302.179 288.412V289.766L296.772 287.394L294.849 287.116L289.106 287.814L287.515 287.822L286.16 287.178L284.912 285.89L282.626 282.908L274.472 275.292L273.949 274.431L273.545 274.327L271.626 273.54L271.042 273.17L270.752 270.222L273.606 265.807L274.27 265.043L275.743 264.163L276.75 263.773L277.212 264.047L277.51 264.614L278.159 263.958L280.441 260.457L281.055 259.801L279.88 258.295L281.296 256.6L283.872 255.21L286.177 254.619V254.032L284.147 253.789L283.128 253.882L282.43 254.446L281.346 255.62L280.247 256.137L279.881 255.226L280.327 253.616L281.639 252.029L283.963 250.894L285.031 250.153L285.477 249.083L284.893 248.121L283.676 247.453L282.569 246.557L282.336 244.9L284.148 245.831L285.026 246.105L286.174 246.14L285.613 245.445L284.903 244.916L283.552 244.194L282.98 243.719L282.656 243.279L282.156 242.978L281.053 242.901L282.19 242.213L282.03 241.715L281.377 241.336L281.053 241.012L281.477 239.969L281.958 239.193L282.614 238.505L283.553 237.717L281.069 231.169L280.611 230.338L279.073 228.642L278.432 229.283L276.326 226.536L274.407 223.332L271.942 220.82L268.191 220.147L268.408 217.697L266.344 215.602L263.509 214.152L261.41 213.603L254.042 206.528L246.819 203.156L245.663 202.251L236.643 198.685H236.059L235.452 199.13L234.925 199.126L234.486 198.72L234.135 197.977L232.849 198.534L232.082 197.919L231.212 197.026L229.602 196.736L230.609 194.984L229.27 192.512L226.82 190.346L224.473 189.541V190.183L225.297 190.345L225.854 190.577L227.094 191.482L224.656 191.053L220.787 188.767L218.334 188.241L215.957 188.055L203.419 184.542L201.019 184.345L199.897 184.542L198.695 184.925L197.447 185.18L196.188 184.99L195.089 184.061L194.719 182.939L194.276 182.033L192.99 181.743L193.23 182.126L193.367 182.412L193.565 183.101L192.016 181.847L188.54 179.591L187.865 178.175L187.533 176.867L186.709 176.236L185.667 175.822L184.66 175.191L184.339 174.227L184.473 173.232L184.214 172.589L182.745 172.651L183.115 171.571L183.012 170.534L182.772 169.559L182.745 168.7L183.298 167.632L184.912 166.018L185.549 164.407L186.205 163.606L186.865 162.568L187.166 161.197L186.853 160.059L186.12 159.072L184.659 157.597L180.866 151.928L179.805 151.095L178.283 150.44L178.485 148.999L179.805 146.814L177.5 144.908L177.076 143.982L177.561 142.587L174.871 141.758L166.56 142.587V141.878L167.712 141.425L169.189 141.262L172.44 141.285V140.634L169.452 140.491L166.785 140.014L164.374 139.189L162.138 137.98L159.311 135.62L158.88 135.109L158.273 134.969L157.083 134.159L156.243 133.26L156.693 132.834L155.125 132.016L151.279 128.392L149.23 127.369L148.265 126.474L147.674 126.272L147.205 126.485L146.801 126.842L146.267 126.923L145.439 126.272L145.992 125.26L146.175 124.613L145.751 124.318L145.385 124.144L144.156 123.02L142.466 123.574L136.121 123.671L134.442 123.237L132.942 122.183L130.592 119.713V119.12L131.13 117.379L129.493 115.374L125.467 112.551L126.039 114.478L128.748 116.467L129.37 118.793L129.618 123.213L130.183 125.806L131.29 127.574L130.069 128.365L130.241 129.683L131.348 130.927L134.213 131.939L135.232 133.051L136.468 135.434H137.052L137.808 135.12L138.136 135.376L138.277 136.027L137.46 136.089L136.617 135.98L135.816 135.74L135.129 135.434V136.027L136.888 137.593L139.032 139.503L144.721 141.828L145.438 142.235L146.106 141.972L147.602 142.588L151.223 144.68L152.894 145.222L154.687 145.269L156.374 144.537L157.481 145.424L159.843 146.919L160.919 147.849V148.442L159.049 148.895L159.133 150.266L160.266 151.862L161.499 153.047L160.736 153.31L160.015 153.821L158.882 154.994L160.267 155.621L161.904 155.807L165.281 155.702V156.294L163.961 157.189L162.282 157.898L160.836 158.874L160.218 160.547L159.867 160.934L157.658 162.2L157.242 162.897L156.761 164.651L156.376 165.391L153.434 163.928L151.873 163.8L151.198 165.066L151.614 165.844L153.056 167.683L152.827 168.051L149.79 169.541L149.279 169.669L148.936 170.157L146.715 171.295L146.257 172.05L144.208 178.594L143.349 180.258L142.227 181.744H141.536L138.915 176.307L131.101 165.674L130.593 164.443L130.208 163.998L129.338 163.452L126.988 162.476L126.793 161.721L126.827 160.854L126.751 160.192L124.519 157.718L121.413 155.948L111.328 152.339L110.427 152.533L109.084 153.474L108.477 153.699L107.573 153.486L106.302 152.556L105.272 152.339L104.669 152.289L104.459 152.138L104.337 151.851L103.994 151.421L103.338 151.115L102.792 151.258L102.433 151.56L102.364 151.746L97.064 150.034L94.526 149.639L93.927 149.267L93.45 148.814L92.702 148.442L91.649 148.488L90.955 148.91L90.337 148.953L89.501 147.849L90.173 146.075L89.181 143.677L79.577 131.832L79.005 130.786L78.25 128.22L77.094 126.425L73.439 117.435L73.107 114.736L72.706 113.096L72.157 111.902L73.451 110.63L73.989 109.715L73.787 108.943L71.791 106.383L70.536 105.615L71.23 104.676L72.855 103.38L73.954 101.762L74.721 100.183L76.324 100.823L77.194 99.81L77.873 98.332L79.865 96.819L79.094 95.108L77.678 93.323L76.701 92.314L77.289 91.907L77.541 91.767L77.976 91.662V91.01H76.702V90.358L77.77 90.156L78.457 89.492L79.258 87.691H79.899L81.204 88.758L83.043 87.993L84.92 86.933L86.355 87.104H86.939L86.813 85.85L87.134 85.245L87.668 84.915L88.164 84.496L89.023 83.005L89.363 83.087L90.523 83.196L93.347 80.234L93.133 79.442L92.637 78.836L91.424 77.986L87.582 81.892L87.49 81.578L87.502 81.298L87.399 81.143L86.941 81.182V80.588L88.028 79.396L88.692 78.895L89.505 78.639L88.864 77.987L88.78 78.072L88.654 78.254L88.459 78.456L88.165 78.638L88.402 77.846L88.448 77.57L89.505 77.275V76.681H88.864V75.97L90.428 74.716L90.737 71.474L90.203 65.186L88.795 63.516L85.693 62.129L82.587 61.62L81.179 62.583H80.618L78.031 60.431L77.279 59.615L77.725 59.763L78.282 59.507L78.515 58.975L77.977 58.311L77.29 58.156L75.478 58.335L74.723 58.312L71.964 57.271L69.793 55.993L67.366 54.917L63.836 54.466V53.755L65.958 53.219L69.926 51.408L72.158 51.144L71.803 50.557L71.521 50.196L71.086 49.978L70.239 49.838V49.193L74.875 48.913L76.054 49.193L76.546 49.928L76.428 50.783L76.199 51.494L76.382 51.797L76.771 51.98L77.977 53.099H78.561L79.259 52.392V51.79L78.191 50.725L79.214 50.037L81.213 49.738L83.102 49.831L83.743 50.134L84.583 50.969L85.346 51.136L85.957 50.911L86.216 50.363L86.113 49.714L85.659 49.185V48.474L87.052 47.953L87.445 46.904L87.121 45.664L86.358 44.556L85.679 44.058L84.099 43.401L83.424 42.927L82.634 42.087V41.861L83.107 41.76L83.744 41.293L85.179 39.96L86.011 40.419L86.984 41.325L88.865 41.294L89.994 40.252L89.742 38.864L88.727 37.527L87.582 36.672L86.784 36.333L89.049 32.63L90.762 28.884L93.403 25.31L96.524 24L99.209 25.391L101.855 27.787L104.886 29.498L114.377 33.032L127.042 37.738L130.407 38.99L143.876 44L159.015 49.612L161.171 49.854L163.369 49.059L173.046 42.639L179.985 38.037L182.922 37.333L184.584 38.066L188.153 40.643L189.788 40.88L191.809 40.766L193.973 41.46L198.649 43.531L199.155 43.674L199.64 43.869L200.096 44.116L200.489 44.407L202.621 47.073L203.423 47.752L204.264 48.231L205.265 48.626L206.292 48.73L207.181 48.355L212.226 45.053L213.023 44.574L213.912 45.026L214.13 45.744L214.111 46.709L214.305 47.891L214.717 48.582L215.965 50.157L216.227 50.828L217.218 51.758L221.575 53.438L222.571 54.117L223.409 55.052L225.197 55.97L226.818 57.339L227.167 59.628L225.866 60.311L225.478 60.577L225.061 61.315L225.235 61.853L225.618 62.26L225.831 62.591L227.895 64.256L228.389 64.905L229.438 64.138L230.899 64.168L231.565 64.266L232.382 64.385L233.509 64.195L235.251 65.907L236.329 66.319L237.407 65.498H238.052L239.188 66.615L241.514 65.113L243.116 65.498L244.228 64.381L245.49 64.169L246.525 64.874L246.954 66.502L252.609 70.983L253.241 71.284L254.113 71.42L255.031 71.24L256.337 70.328L256.965 70.116L259.529 70.629L259.878 70.417L261.797 68.163L268.022 65.79L268.505 65.674L274.664 64.196L277.957 62.492L278.228 59.899L277.368 56.502L277.281 52.401L277.325 51.94L277.213 51.454L277.894 50.968L278.446 51.086L279.04 51.071L279.706 51.137ZM140.266 130.035L141.182 130.256L141.701 130.702L142.464 130.907L143.456 130.88V131.469L142.315 131.884L140.877 132.233L139.282 132.372L137.691 132.182L136.066 131.508L135.207 130.632L133.91 128.221L135.677 127.624L136.467 127.57L139.459 128.082L142.225 128.931V129.582H138.974L139.863 130.059L140.266 130.035ZM256.05 262.369L257.284 261.752L258.63 261.696L258.518 262.817L257.789 263.097L256.611 262.873L256.05 262.369Z" stroke="#134A4B" stroke-width="0.5" stroke-linecap="round" stroke-linejoin="round"/>
</g>
</g>
<defs>
<filter id="filter0_d_80_18" x="-50.25" y="23.75" width="435.627" height="548.5" filterUnits="userSpaceOnUse" color-interpolation-filters="sRGB">
<feFlood flood-opacity="0" result="BackgroundImageFix"/>
<feColorMatrix in="SourceAlpha" type="matrix" values="0 0 0 0 0 0 0 0 0 0 0 0 0 0 0 0 0 0 127 0" result="hardAlpha"/>
<feOffset dy="4"/>
<feGaussianBlur stdDeviation="2"/>
<feComposite in2="hardAlpha" operator="out"/>
<feColorMatrix type="matrix" values="0 0 0 0 0 0 0 0 0 0 0 0 0 0 0 0 0 0 0.25 0"/>
<feBlend mode="normal" in2="BackgroundImageFix" result="effect1_dropShadow_80_18"/>
<feBlend mode="normal" in="SourceGraphic" in2="effect1_dropShadow_80_18" result="shape"/>
</filter>
<clipPath id="clip0_80_18">
<rect width="420" height="338" fill="white"/>
</clipPath>
</defs>
</svg>
