<svg width="50" height="50" viewBox="0 0 50 50" fill="none" xmlns="http://www.w3.org/2000/svg">
<path d="M40.8333 9.16675C44.4965 12.8313 46.7757 17.6526 47.2826 22.8092C47.7895 27.9658 46.4926 33.1387 43.6131 37.4463C40.7336 41.754 36.4495 44.9299 31.4908 46.4329C26.5321 47.936 21.2057 47.6732 16.4191 45.6892C11.6325 43.7053 7.68184 40.123 5.24037 35.5528C2.7989 30.9826 2.01765 25.7072 3.02973 20.6256C4.0418 15.5439 6.7846 10.9704 10.7907 7.68431C14.7969 4.39822 19.8185 2.6029 25 2.60425" stroke="#F2F4F8" stroke-width="2" stroke-linecap="round" stroke-linejoin="round"/>
<path d="M28.6458 25.0001C28.6458 25.7212 28.432 26.426 28.0314 27.0256C27.6308 27.6252 27.0614 28.0924 26.3952 28.3684C25.729 28.6443 24.996 28.7165 24.2887 28.5759C23.5815 28.4352 22.9319 28.088 22.422 27.5781C21.9121 27.0682 21.5649 26.4186 21.4242 25.7113C21.2835 25.0041 21.3557 24.2711 21.6317 23.6049C21.9076 22.9387 22.3749 22.3693 22.9745 21.9687C23.574 21.5681 24.2789 21.3542 25 21.3542C25.9669 21.3542 26.8943 21.7384 27.578 22.4221C28.2617 23.1058 28.6458 24.0331 28.6458 25.0001Z" stroke="#F2F4F8" stroke-width="2" stroke-linecap="round" stroke-linejoin="round"/>
<path d="M34.0625 15.9375C36.1591 18.0329 37.4643 20.7904 37.7558 23.7402C38.0473 26.69 37.3069 29.6496 35.6609 32.1147C34.0149 34.5799 31.5651 36.3981 28.7289 37.2595C25.8926 38.1209 22.8455 37.9723 20.1065 36.839C17.3676 35.7056 15.1063 33.6576 13.708 31.044C12.3098 28.4304 11.861 25.4127 12.4381 22.5053C13.0153 19.5979 14.5826 16.9805 16.8732 15.0991C19.1638 13.2177 22.0358 12.1887 25 12.1875" stroke="#F2F4F8" stroke-width="2" stroke-linecap="round" stroke-linejoin="round"/>
<path d="M25 2.60425V21.3542" stroke="#F2F4F8" stroke-width="2" stroke-linecap="round" stroke-linejoin="round"/>
</svg>
