<svg width="19" height="19" viewBox="0 0 19 19" fill="none" xmlns="http://www.w3.org/2000/svg">
<path d="M7.70312 0.15625C3.53509 0.15625 0.15625 3.53509 0.15625 7.70312C0.15625 11.8712 3.53509 15.25 7.70312 15.25C9.4641 15.25 11.0834 14.647 12.3671 13.6371L17.3107 18.5807C17.3941 18.6641 17.4932 18.7303 17.6022 18.7755C17.7112 18.8206 17.828 18.8439 17.946 18.8439C18.064 18.8439 18.1809 18.8206 18.2899 18.7755C18.3989 18.7303 18.498 18.6641 18.5814 18.5807C18.6648 18.4972 18.731 18.3982 18.7762 18.2892C18.8213 18.1802 18.8446 18.0633 18.8446 17.9453C18.8446 17.8273 18.8213 17.7105 18.7762 17.6014C18.731 17.4924 18.6648 17.3934 18.5814 17.3099L13.6371 12.3664C14.6843 11.0378 15.2526 9.3948 15.25 7.70312C15.25 3.53509 11.8712 0.15625 7.70312 0.15625ZM1.95312 7.70312C1.95312 6.17813 2.55893 4.7156 3.63726 3.63726C4.7156 2.55893 6.17813 1.95312 7.70312 1.95312C9.2281 1.95312 10.6907 2.55893 11.769 3.63726C12.8473 4.7156 13.4531 6.17813 13.4531 7.70312C13.4531 9.2281 12.8473 10.6907 11.769 11.769C10.6907 12.8473 9.2281 13.4531 7.70312 13.4531C6.17813 13.4531 4.7156 12.8473 3.63726 11.769C2.55893 10.6907 1.95312 9.2281 1.95312 7.70312Z" fill="white"/>
</svg>
