<svg width="92" height="87" viewBox="0 0 92 87" fill="none" xmlns="http://www.w3.org/2000/svg">
<path d="M45.9989 0.0010376C20.5934 0.00222705 0.00215625 19.4751 0 43.5C0.00215625 67.5248 20.5934 86.9976 45.9989 86.999C71.4066 86.9976 91.9986 67.5248 92 43.5C91.9986 19.4751 71.4066 0.00222705 45.9989 0.0010376ZM17.5388 16.5864C21.7327 12.6225 26.8396 9.53892 32.5346 7.6273C29.8064 10.7496 27.5321 14.748 25.7501 19.3716H14.8731C15.714 18.4039 16.6024 17.4721 17.5388 16.5864ZM11.7897 23.4498H24.3653C22.7466 28.8752 21.776 34.9762 21.6047 41.461H5.80876C6.17658 34.8673 8.31953 28.7318 11.7897 23.4498ZM11.7897 63.5503C8.31953 58.2683 6.17658 52.1327 5.80876 45.5391H21.6196C21.7923 52.0172 22.7355 58.1289 24.352 63.5505L11.7897 63.5503ZM17.5388 70.4133C16.6024 69.5278 15.7139 68.596 14.8729 67.6282H25.7571C26.5262 69.6289 27.3777 71.5269 28.3288 73.2714C29.5784 75.5548 30.9806 77.5989 32.5242 79.3699C26.8331 77.4582 21.7298 74.3747 17.5388 70.4133ZM43.8434 81.5059C43.1703 81.4726 42.5013 81.4249 41.8374 81.3598C40.779 80.9112 39.7311 80.2978 38.6928 79.4973C35.5246 77.0574 32.5878 72.9262 30.3557 67.6282H43.8432V81.5059H43.8434ZM43.8434 63.5503H28.851C27.1481 58.2537 26.0989 52.1127 25.917 45.5389H43.8432V63.5503H43.8434ZM43.8434 41.461H25.9307C26.1118 34.8833 27.1661 28.7476 28.8702 23.4498H43.8436L43.8434 41.461ZM43.8434 19.3716H30.3756C30.9343 18.0479 31.5197 16.7698 32.1606 15.6002C34.0725 12.0956 36.324 9.33179 38.693 7.50241C39.7311 6.70208 40.779 6.08866 41.8375 5.64007C42.5015 5.57516 43.1703 5.52724 43.8436 5.4941L43.8434 19.3716ZM80.2111 23.4498C83.6812 28.7318 85.8234 34.8675 86.1912 41.461H70.3804C70.2077 34.9829 69.2645 28.8711 67.6473 23.4498H80.2111ZM74.4612 16.5864C75.3976 17.4719 76.2861 18.4039 77.1271 19.3716H66.2422C65.4729 17.3711 64.6208 15.4728 63.6705 13.7285C62.4211 11.4453 61.0186 9.40095 59.4753 7.63002C65.1669 9.54283 70.2695 12.6254 74.4612 16.5864ZM48.1559 5.4941C48.829 5.52724 49.498 5.57634 50.1612 5.64007C51.2196 6.09019 52.2677 6.70208 53.3065 7.50241C56.4754 9.94232 59.4115 14.0735 61.6434 19.3715H48.1559V5.4941ZM48.1559 23.4498H63.1483C64.851 28.7464 65.9011 34.8872 66.0822 41.461H48.1559V23.4498ZM48.1559 45.5391H66.068C65.8871 52.1168 64.8329 58.2523 63.1285 63.5505H48.1559V45.5391ZM53.3063 79.4973C52.2675 80.2978 51.2194 80.9099 50.161 81.3598C49.4978 81.4235 48.8288 81.4726 48.1557 81.5059V67.6284H61.6235C61.0648 68.9519 60.4794 70.2303 59.8386 71.3998C57.9269 74.9043 55.6753 77.6681 53.3063 79.4973ZM74.4612 70.4133C70.2681 74.3772 65.1599 77.4609 59.4647 79.3724C62.1936 76.2501 64.4663 72.2518 66.2492 67.6282H77.1271C76.286 68.5961 75.3976 69.528 74.4612 70.4133ZM80.2111 63.5503H67.6333C69.2519 58.1249 70.2233 52.0225 70.3946 45.5389H86.1912C85.8234 52.1327 83.6812 58.2683 80.2111 63.5503Z" fill="white"/>
</svg>
