<svg width="50" height="50" viewBox="0 0 50 50" fill="none" xmlns="http://www.w3.org/2000/svg">
<path d="M24.1211 1.5625V10.2539H25C26.4551 10.2539 27.2461 11.3965 27.3242 12.5586C27.3633 13.1445 27.207 13.6816 26.8652 14.0625C26.5234 14.4531 25.9766 14.7461 25 14.7461C24.5117 14.7461 23.916 14.4727 23.4766 14.0234C23.0273 13.584 22.7539 12.9883 22.7539 12.5H20.9961C20.9961 13.5742 21.5039 14.541 22.2266 15.2734C22.959 15.9961 23.9258 16.5039 25 16.5039C26.3672 16.5039 27.4805 16.0156 28.1738 15.2344C28.877 14.4434 29.1504 13.418 29.082 12.4414C28.9648 10.7324 27.7734 9.00586 25.8789 8.5918V1.5625H24.1211ZM19.4434 15.2832L5.99023 24.1211H9.18359L20.4004 16.748L19.4434 15.2832ZM30.5566 15.2832L29.5996 16.748L40.8203 24.1211H44.0039L30.5566 15.2832ZM4.00391 25.8789V47.5586H45.9961V25.8789H4.00391ZM7.71484 28.125H9.47266V45.3125H7.71484V28.125ZM12.4023 28.125H14.1602V45.3125H12.4023V28.125ZM17.0898 28.125H18.8477V45.3125H17.0898V28.125ZM21.7773 28.125H23.5352V45.3125H21.7773V28.125ZM26.4648 28.125H28.2227V45.3125H26.4648V28.125ZM31.1523 28.125H32.9102V45.3125H31.1523V28.125ZM35.8398 28.125H37.5977V45.3125H35.8398V28.125ZM40.5273 28.125H42.2852V45.3125H40.5273V28.125Z" fill="#EEEEEE"/>
</svg>
