<svg width="50" height="50" viewBox="0 0 50 50" fill="none" xmlns="http://www.w3.org/2000/svg">
<g clip-path="url(#clip0_107_11)">
<path d="M47.9167 10.8291C47.6521 16.8937 47.7938 31.2791 37.5417 41.4437C37.7864 40.4956 37.9124 39.5207 37.9167 38.5416C37.9167 38.3687 37.8979 38.1999 37.8917 38.0291C45.1625 29.3457 45.5646 18.2166 45.7875 12.027L45.8333 10.7708C45.2151 10.8429 44.5933 10.8791 43.9708 10.8791C37.175 10.8791 30.8063 6.71867 28.125 4.70825C25.4438 6.71867 19.0729 10.877 12.2771 10.8791C11.6554 10.8791 11.0342 10.8429 10.4167 10.7708L10.4625 12.027C10.5313 13.9228 10.6271 16.2978 10.9208 18.9103C10.2262 19.05 9.55256 19.279 8.91668 19.5916C8.47918 16.0291 8.42501 12.9249 8.33334 10.8291V8.20825C17.6646 11.152 28.0813 2.08325 28.0813 2.08325L28.125 2.11867L28.1688 2.08325C28.1688 2.08325 38.5854 11.152 47.9167 8.20825V10.8291ZM16.6875 45.8333H4.16668V42.7083C4.16833 41.3274 4.7176 40.0036 5.69399 39.0272C6.67038 38.0508 7.99418 37.5016 9.37501 37.4999H14.2188C14.2823 36.7955 14.4092 36.0982 14.5979 35.4166H9.37501C7.44182 35.4188 5.58843 36.1877 4.22146 37.5547C2.85448 38.9217 2.08555 40.7751 2.08334 42.7083V47.9166H18.7792C17.9993 47.3111 17.2954 46.6113 16.6875 45.8333ZM6.25001 27.0833C6.25001 25.4256 6.90849 23.8359 8.08059 22.6638C9.2527 21.4917 10.8424 20.8333 12.5 20.8333C14.1576 20.8333 15.7473 21.4917 16.9194 22.6638C18.0915 23.8359 18.75 25.4256 18.75 27.0833C18.7465 27.9782 18.5489 28.8617 18.1708 29.6728C17.3177 30.4307 16.5775 31.307 15.9729 32.2749C15.0325 32.9051 13.9385 33.2679 12.8079 33.3245C11.6773 33.381 10.5525 33.1292 9.55393 32.596C8.55533 32.0628 7.72042 31.2682 7.13848 30.2972C6.55653 29.3262 6.24943 28.2153 6.25001 27.0833ZM8.33334 27.0833C8.33334 27.9073 8.57771 28.7129 9.03555 29.3981C9.49339 30.0833 10.1441 30.6174 10.9055 30.9327C11.6669 31.2481 12.5046 31.3306 13.3129 31.1699C14.1211 31.0091 14.8636 30.6122 15.4463 30.0295C16.029 29.4468 16.4258 28.7044 16.5866 27.8961C16.7474 27.0879 16.6649 26.2501 16.3495 25.4887C16.0341 24.7274 15.5001 24.0766 14.8149 23.6188C14.1297 23.161 13.3241 22.9166 12.5 22.9166C11.3953 22.9177 10.3361 23.357 9.55495 24.1382C8.77379 24.9194 8.33445 25.9785 8.33334 27.0833ZM26.0417 47.9166C24.1875 47.9166 22.3749 47.3667 20.8332 46.3366C19.2915 45.3065 18.0899 43.8423 17.3803 42.1292C16.6707 40.4162 16.4851 38.5312 16.8468 36.7126C17.2085 34.894 18.1014 33.2236 19.4126 31.9125C20.7237 30.6013 22.3941 29.7085 24.2127 29.3467C26.0313 28.985 27.9163 29.1706 29.6293 29.8802C31.3424 30.5898 32.8066 31.7914 33.8367 33.3331C34.8668 34.8748 35.4167 36.6874 35.4167 38.5416C35.4139 41.0271 34.4253 43.4101 32.6678 45.1677C30.9102 46.9252 28.5272 47.9138 26.0417 47.9166ZM26.0417 45.8333C27.4838 45.8333 28.8936 45.4056 30.0927 44.6044C31.2918 43.8032 32.2264 42.6644 32.7783 41.332C33.3302 39.9996 33.4746 38.5335 33.1932 37.1191C32.9119 35.7046 32.2174 34.4054 31.1977 33.3856C30.1779 32.3658 28.8787 31.6714 27.4642 31.39C26.0498 31.1087 24.5837 31.2531 23.2513 31.805C21.9189 32.3569 20.7801 33.2914 19.9789 34.4906C19.1777 35.6897 18.75 37.0994 18.75 38.5416C18.7522 40.4748 19.5212 42.3282 20.8881 43.6951C22.2551 45.0621 24.1085 45.831 26.0417 45.8333ZM23.0104 37.7791C23.1554 37.2066 23.4592 36.6868 23.8867 36.2795C24.3143 35.8722 24.8483 35.594 25.4271 35.477C25.726 35.4173 26.0319 35.4011 26.3354 35.4291L26.525 33.3541C26.0217 33.3087 25.5145 33.3354 25.0188 33.4333C24.0528 33.6279 23.1616 34.0919 22.4482 34.7717C21.7348 35.4516 21.2284 36.3194 20.9875 37.2749L23.0104 37.7791ZM23.8313 40.752L22.3583 42.2249C23.2145 43.0817 24.3424 43.6134 25.5482 43.7284C26.7539 43.8434 27.9621 43.5346 28.9647 42.855C29.9674 42.1755 30.7018 41.1678 31.0418 40.0052C31.3817 38.8426 31.3058 37.598 30.8271 36.4853L28.9146 37.3083C29.203 37.9762 29.2492 38.7238 29.0454 39.4222C28.8417 40.1206 28.4006 40.726 27.7983 41.1341C27.1959 41.5421 26.4701 41.7272 25.746 41.6575C25.0218 41.5877 24.3446 41.2675 23.8313 40.752Z" fill="#F2F4F8"/>
</g>
<defs>
<clipPath id="clip0_107_11">
<rect width="50" height="50" fill="white"/>
</clipPath>
</defs>
</svg>
