<svg width="48" height="50" viewBox="0 0 48 50" fill="none" xmlns="http://www.w3.org/2000/svg">
<path d="M40.6716 7.31432C36.3311 2.9526 30.5058 0.542175 24.3378 0.542175C18.1697 0.542175 12.4586 2.9526 8.11816 7.31432C0.465246 15.0047 -0.791203 26.9421 4.91993 36.0099L0.579468 49.4394L13.3724 43.9298C22.2818 48.8655 33.3613 47.2585 40.6716 39.9125C49.6952 30.8447 49.6952 16.2673 40.6716 7.19954V7.31432ZM35.5316 31.5334L33.9325 33.3699C33.3613 33.9438 32.676 34.4029 31.9907 34.7473C31.0769 35.0916 30.0489 35.2064 29.0209 35.2064C23.9951 35.2064 19.5404 31.3038 18.9693 30.8447C12.8013 25.909 12.4586 20.0551 12.5728 17.7595C12.5728 16.7265 13.0297 15.6934 13.7151 15.0047L15.3142 13.1682C15.8853 12.5943 16.5706 12.25 17.3702 12.1352H17.5986C18.284 12.1352 18.9693 12.3647 19.5404 12.9386L22.2818 15.3491C23.424 16.3821 23.5382 18.2186 22.5102 19.4812L21.2538 20.8586C21.2538 20.9734 21.1395 21.203 21.2538 21.3177C22.8529 24.7612 25.3658 26.0238 26.7364 26.4829C26.9649 26.4829 27.0791 26.4829 27.1933 26.3682L28.1071 25.2203C29.1351 23.9577 30.9627 23.843 32.2191 24.876L35.0747 27.2864C35.6458 27.7455 36.1027 28.549 36.1027 29.3525C36.1027 30.156 35.8742 30.9594 35.4174 31.5334H35.5316Z" fill="#2D2D2D"/>
</svg>
