<svg width="68" height="81" viewBox="0 0 68 81" fill="none" xmlns="http://www.w3.org/2000/svg">
<path d="M65.83 69.6141C64.1611 68.5395 56.8405 62.3191 56.8405 62.3191C56.8405 62.3191 56.2149 57.8069 55.3798 51.5768C54.546 45.3466 52.4609 42.3393 52.4609 42.3393C63.9519 31.3725 56.8407 19.1364 54.9637 13.3351C53.3577 8.37164 54.7991 4.29079 58.1138 4.08624C60.8284 3.91917 62.6788 7.9638 62.0542 9.46862C61.4286 10.9723 61.0327 12.4659 62.2841 13.1094C63.5355 13.7539 65.1814 12.9048 66.0154 8.39395C66.8504 3.882 61.7517 -2.30723 54.7555 0.874555C48.6511 3.64991 49.98 12.0358 53.3178 20.1986C56.6542 28.3628 52.4052 40.0638 41.4305 38.6762C32.2644 37.5168 20.161 40.8245 20.161 40.8245C20.161 40.8245 18.492 36.098 11.6096 36.9569C2.91169 38.0428 5.9797 42.5426 5.9797 42.5426L6.39616 47.0547C5.77178 47.6994 3.68641 48.3439 3.89464 48.9884C4.10287 49.6329 5.35409 52.2115 6.39616 52.6416C7.4393 53.0705 9.74718 53.6302 12.6529 53.9296C14.7381 54.1439 18.3107 55.8533 18.3107 55.8533C18.3107 55.8533 14.5578 65.1993 13.932 66.1655C13.0475 67.532 9.86204 71.4456 5.59011 74.4355C4.16691 75.4341 2.09736 75.1886 1.41969 75.5102C-1.29129 76.7992 0.564044 78.0986 1.39804 78.0986C2.23188 78.0986 6.21711 78.5187 7.67533 78.0886C9.136 77.6584 18.0747 68.5395 18.0747 68.5395L22.2958 60.7745L25.5054 67.1319L24.254 77.1212C24.254 77.1212 26.4433 80.667 28.0069 80.3441C29.5717 80.0225 27.6947 77.4441 27.6947 76.1561C27.6947 74.8671 29.5717 65.5211 29.5717 65.5211L26.7724 57.5901C29.9044 57.3683 35.0188 57.0215 39.0343 56.8183L36.1274 61.4538C35.7777 62.0125 35.5815 62.6608 35.5621 63.3252L35.1748 76.4877C35.1748 76.4877 33.0896 78.2071 32.2559 78.4216C31.4209 78.636 32.6735 80.7842 32.6735 80.7842L35.1747 81L38.303 79.2819L39.9719 65.9612L46.6118 59.2896C47.9296 61.9066 49.4267 65.5834 49.4267 65.5834C49.9072 66.5323 50.6756 67.2915 51.6173 67.7453L63.9518 73.695C63.9518 73.695 63.3273 77.1324 62.0748 77.1324C60.8247 77.1324 60.6164 78.8518 60.8247 79.495C61.0327 80.1408 62.2841 80.1408 63.5356 80.1408C64.7869 80.1408 64.7869 79.9252 64.9951 79.2818C65.2033 78.6358 66.8722 75.8443 67.7061 73.6948C68.541 71.5467 67.4977 70.6877 65.83 69.6141Z" fill="#134A4B"/>
</svg>
